<svg xmlns="http://www.w3.org/2000/svg" viewBox="0 0 64 64" role="img" aria-labelledby="title desc">
  <title id="title">Lawinate favicon</title>
  <desc id="desc">Rounded blue gradient square with a white legal scales icon.</desc>
  <defs>
    <linearGradient id="bg" x1="10" y1="8" x2="56" y2="58" gradientUnits="userSpaceOnUse">
      <stop offset="0" stop-color="#0d6cf2" />
      <stop offset="1" stop-color="#3cc8d9" />
    </linearGradient>
    <filter id="shadow" x="-20%" y="-20%" width="140%" height="140%">
      <feDropShadow dx="0" dy="3" stdDeviation="3" flood-color="#062a67" flood-opacity="0.28" />
    </filter>
  </defs>

  <rect x="4" y="4" width="56" height="56" rx="18" fill="url(#bg)" />
  <path
    d="M32 14c1.66 0 3 1.34 3 3v3h8.5c1.38 0 2.5 1.12 2.5 2.5S44.88 25 43.5 25H35v4.19l8.85 6.41c.66.48.95 1.31.74 2.1A9.11 9.11 0 0 1 35.78 44H35c-4.06 0-7.59-2.7-8.66-6.3a2 2 0 0 1 .74-2.11L31 32.75V25h-8v4.19l8.85 6.41c.66.48.95 1.31.74 2.1A9.11 9.11 0 0 1 23.78 44H23c-4.06 0-7.59-2.7-8.66-6.3a2 2 0 0 1 .74-2.11L24 29.19V25h-3.5c-1.38 0-2.5-1.12-2.5-2.5s1.12-2.5 2.5-2.5H29v-3c0-1.66 1.34-3 3-3Zm-8.58 21.08-3.26 2.36c.76.98 1.93 1.56 3.14 1.56h.18c1.21 0 2.38-.58 3.14-1.56l-3.2-2.36Zm17 0-3.26 2.36c.76.98 1.93 1.56 3.14 1.56h.18c1.21 0 2.38-.58 3.14-1.56l-3.2-2.36ZM29 46h6c1.66 0 3 1.34 3 3s-1.34 3-3 3h-6c-1.66 0-3-1.34-3-3s1.34-3 3-3Z"
    fill="#fff"
    filter="url(#shadow)"
  />
</svg>
